<svg width="413" height="162" viewBox="0 0 413 162" fill="none" xmlns="http://www.w3.org/2000/svg">
<rect x="23.373" y="28.208" width="29.0148" height="84.6265" rx="14.5074" fill="#685ED9"/>
<rect x="66.0894" y="28.208" width="29.0148" height="54.8057" rx="14.5074" fill="#685ED9"/>
<rect x="108.805" y="28.208" width="29.0148" height="105.582" rx="14.5074" fill="#685ED9"/>
<path d="M168.861 60.4897H170.517L186.771 97.8562L203.08 60.4897H204.708L187.368 100H186.201L168.861 60.4897ZM168.427 60.4897H169.893V80.9233V100H168.427V60.4897ZM203.759 60.4897H205.224V100H203.759V80.9233V60.4897ZM225.875 100.543C224.084 100.543 222.41 100.19 220.854 99.4844C219.299 98.7608 217.933 97.7477 216.757 96.4452C215.581 95.1426 214.658 93.6049 213.989 91.832C213.338 90.041 213.012 88.0782 213.012 85.9435V84.7495C213.012 82.5967 213.329 80.6338 213.962 78.8609C214.613 77.0699 215.499 75.5232 216.621 74.2206C217.761 72.9 219.072 71.8869 220.556 71.1814C222.039 70.4578 223.631 70.0959 225.332 70.0959C226.96 70.0959 228.452 70.4035 229.809 71.0186C231.166 71.6156 232.342 72.4658 233.337 73.5694C234.35 74.6729 235.128 75.9935 235.671 77.5312C236.213 79.069 236.485 80.7695 236.485 82.6328V84.3424H213.962V82.8771H235.019V82.5243C235.019 80.5524 234.621 78.7433 233.825 77.0971C233.029 75.4327 231.908 74.094 230.461 73.0809C229.013 72.0678 227.304 71.5613 225.332 71.5613C223.704 71.5613 222.22 71.905 220.881 72.5925C219.561 73.2799 218.421 74.2297 217.462 75.4418C216.503 76.6358 215.762 78.0287 215.237 79.6207C214.731 81.2127 214.477 82.9223 214.477 84.7495V85.9435C214.477 87.7706 214.767 89.4802 215.346 91.0722C215.925 92.6642 216.73 94.0662 217.761 95.2783C218.792 96.4723 219.995 97.413 221.37 98.1005C222.763 98.7698 224.264 99.1045 225.875 99.1045C227.557 99.1045 229.122 98.8241 230.569 98.2633C232.034 97.7025 233.373 96.6351 234.585 95.0612L235.616 95.7939C234.965 96.7165 234.178 97.5397 233.256 98.2633C232.351 98.9688 231.284 99.5296 230.053 99.9457C228.841 100.344 227.448 100.543 225.875 100.543ZM262.997 93.216V70.6387H264.489V100H262.997V93.216ZM263.241 88.5214L264.489 88.4671C264.489 90.2038 264.263 91.8049 263.811 93.2702C263.359 94.7356 262.662 96.02 261.721 97.1236C260.781 98.209 259.578 99.0502 258.112 99.6472C256.647 100.244 254.901 100.543 252.875 100.543C251.446 100.543 250.134 100.344 248.94 99.9457C247.764 99.5296 246.742 98.8784 245.874 97.9919C245.024 97.1055 244.363 95.9477 243.893 94.5185C243.441 93.0712 243.215 91.3255 243.215 89.2812V70.6387H244.68V89.3355C244.68 91.1265 244.879 92.6461 245.277 93.8944C245.693 95.1426 246.263 96.1467 246.986 96.9065C247.728 97.6663 248.587 98.2181 249.564 98.5618C250.559 98.9055 251.645 99.0774 252.821 99.0774C255.462 99.0774 257.542 98.5708 259.062 97.5577C260.582 96.5447 261.658 95.2331 262.291 93.623C262.924 91.9948 263.241 90.2943 263.241 88.5214ZM289.292 60.4897V100H287.826V60.4897H289.292ZM309.535 79.0509V80.5705H288.233V79.0509H309.535ZM312.303 60.4897V61.9551H288.233V60.4897H312.303ZM316.048 85.8892V84.7495C316.048 82.5967 316.356 80.6248 316.971 78.8338C317.604 77.0428 318.481 75.496 319.603 74.1935C320.743 72.891 322.099 71.8869 323.673 71.1814C325.247 70.4578 326.984 70.0959 328.883 70.0959C330.801 70.0959 332.547 70.4578 334.121 71.1814C335.695 71.8869 337.051 72.891 338.191 74.1935C339.331 75.496 340.208 77.0428 340.823 78.8338C341.438 80.6248 341.746 82.5967 341.746 84.7495V85.8892C341.746 88.042 341.438 90.0139 340.823 91.8049C340.208 93.5959 339.331 95.1426 338.191 96.4452C337.07 97.7477 335.722 98.7608 334.148 99.4844C332.574 100.19 330.837 100.543 328.938 100.543C327.02 100.543 325.274 100.19 323.7 99.4844C322.127 98.7608 320.77 97.7477 319.63 96.4452C318.49 95.1426 317.604 93.5959 316.971 91.8049C316.356 90.0139 316.048 88.042 316.048 85.8892ZM317.513 84.7495V85.8892C317.513 87.644 317.767 89.3174 318.273 90.9094C318.798 92.4833 319.549 93.8853 320.525 95.1155C321.502 96.3457 322.696 97.3135 324.107 98.0191C325.519 98.7246 327.129 99.0774 328.938 99.0774C330.729 99.0774 332.321 98.7246 333.714 98.0191C335.125 97.3135 336.319 96.3457 337.296 95.1155C338.273 93.8853 339.014 92.4833 339.521 90.9094C340.027 89.3174 340.281 87.644 340.281 85.8892V84.7495C340.281 83.0308 340.027 81.3846 339.521 79.8107C339.014 78.2368 338.264 76.8348 337.269 75.6046C336.292 74.3563 335.098 73.3704 333.687 72.6467C332.275 71.9231 330.674 71.5613 328.883 71.5613C327.092 71.5613 325.491 71.9231 324.08 72.6467C322.687 73.3704 321.493 74.3563 320.498 75.6046C319.521 76.8348 318.78 78.2368 318.273 79.8107C317.767 81.3846 317.513 83.0308 317.513 84.7495ZM350.348 75.7403V100H348.883V70.6387H350.348V75.7403ZM361.99 70.3944L361.827 71.697C361.537 71.6608 361.23 71.6246 360.904 71.5884C360.597 71.5522 360.271 71.5342 359.927 71.5342C358.281 71.5342 356.834 71.8688 355.585 72.5382C354.355 73.2075 353.324 74.1302 352.492 75.3061C351.678 76.482 351.063 77.8388 350.647 79.3765C350.249 80.8961 350.05 82.5243 350.05 84.261L349.073 84.3424C349.073 82.2801 349.29 80.3805 349.724 78.6438C350.176 76.9071 350.846 75.4056 351.732 74.1392C352.637 72.8548 353.767 71.8598 355.124 71.1542C356.499 70.4487 358.1 70.0959 359.927 70.0959C360.379 70.0959 360.777 70.1231 361.121 70.1773C361.465 70.2316 361.754 70.304 361.99 70.3944ZM368.692 76.9343V100H367.2V70.6387H368.692V76.9343ZM368.502 82.7957L367.715 81.2489C367.896 79.8016 368.285 78.4177 368.882 77.0971C369.497 75.7584 370.293 74.5644 371.27 73.5151C372.265 72.4658 373.414 71.6337 374.716 71.0186C376.037 70.4035 377.493 70.0959 379.085 70.0959C380.569 70.0959 381.889 70.2949 383.047 70.6929C384.223 71.0728 385.209 71.6789 386.005 72.5111C386.819 73.3251 387.434 74.3925 387.85 75.7131C388.285 77.0338 388.502 78.6167 388.502 80.462V100H387.036V80.462C387.036 78.1102 386.693 76.292 386.005 75.0076C385.318 73.7231 384.368 72.8276 383.156 72.3211C381.944 71.7965 380.56 71.5342 379.004 71.5342C377.159 71.5342 375.585 71.9502 374.282 72.7824C372.98 73.5965 371.912 74.6186 371.08 75.8488C370.248 77.079 369.624 78.3272 369.208 79.5936C368.792 80.86 368.557 81.9273 368.502 82.7957ZM388.502 80.462L387.498 79.5665C387.678 78.3182 388.076 77.1332 388.692 76.0116C389.325 74.8719 390.139 73.8588 391.134 72.9724C392.129 72.0859 393.287 71.3894 394.607 70.8829C395.946 70.3583 397.411 70.0959 399.003 70.0959C400.487 70.0959 401.807 70.304 402.965 70.7201C404.141 71.1181 405.127 71.7603 405.923 72.6467C406.737 73.5151 407.352 74.6367 407.768 76.0116C408.202 77.3865 408.42 79.0509 408.42 81.0047V100H406.954V81.0047C406.954 78.5081 406.61 76.5724 405.923 75.1975C405.236 73.8226 404.286 72.8638 403.074 72.3211C401.862 71.7784 400.478 71.5161 398.922 71.5342C397.185 71.5522 395.675 71.8779 394.39 72.5111C393.124 73.1261 392.066 73.904 391.215 74.8448C390.365 75.7855 389.714 76.7624 389.261 77.7755C388.827 78.7705 388.574 79.666 388.502 80.462Z" fill="#2F2F33"/>
</svg>
